<?xml version="1.0" encoding="UTF-8" standalone="no"?>
<!DOCTYPE svg PUBLIC "-//W3C//DTD SVG 1.1//EN"
 "http://www.w3.org/Graphics/SVG/1.1/DTD/svg11.dtd">
<!-- Generated by graphviz version 2.40.1 (20161225.0304)
 -->
<!-- Title: %3 Pages: 1 -->
<svg width="242pt" height="149pt"
 viewBox="0.00 0.00 242.00 149.42" xmlns="http://www.w3.org/2000/svg" xmlns:xlink="http://www.w3.org/1999/xlink">
<g id="graph0" class="graph" transform="scale(1 1) rotate(0) translate(4 145.4159)">
<title>%3</title>
<polygon fill="#ffffff" stroke="transparent" points="-4,4 -4,-145.4159 238,-145.4159 238,4 -4,4"/>
<!-- root -->
<g id="root" class="node">
<title>root</title>
<ellipse fill="none" stroke="#000000" cx="27" cy="-48.1667" rx="27" ry="18"/>
<text text-anchor="middle" x="27" y="-44.4667" font-family="Times,serif" font-size="14.00" fill="#000000">root</text>
</g>
<!-- a -->
<g id="a" class="node">
<title>a</title>
<ellipse fill="none" stroke="#000000" cx="117" cy="-102.1667" rx="27" ry="18"/>
<text text-anchor="middle" x="117" y="-98.4667" font-family="Times,serif" font-size="14.00" fill="#000000">a</text>
</g>
<!-- root&#45;&gt;a -->
<g id="edge1" class="edge">
<title>root&#45;&gt;a</title>
<path fill="none" stroke="#000000" d="M47.4224,-60.4201C59.3897,-67.6005 74.7024,-76.7882 87.9143,-84.7153"/>
<polygon fill="#000000" stroke="#000000" points="86.2827,-87.818 96.6584,-89.9618 89.8842,-81.8155 86.2827,-87.818"/>
<text text-anchor="middle" x="68.2946" y="-63.8434" font-family="Times,serif" font-size="14.00" fill="#000000">a</text>
</g>
<!-- b -->
<g id="b" class="node">
<title>b</title>
<ellipse fill="none" stroke="#000000" cx="117" cy="-48.1667" rx="27" ry="18"/>
<text text-anchor="middle" x="117" y="-44.4667" font-family="Times,serif" font-size="14.00" fill="#000000">b</text>
</g>
<!-- root&#45;&gt;b -->
<g id="edge3" class="edge">
<title>root&#45;&gt;b</title>
<path fill="none" stroke="#000000" d="M54.003,-48.1667C62.0277,-48.1667 70.9665,-48.1667 79.5309,-48.1667"/>
<polygon fill="#000000" stroke="#000000" points="79.7051,-51.6668 89.705,-48.1667 79.705,-44.6668 79.7051,-51.6668"/>
<text text-anchor="middle" x="68.3379" y="-36.9667" font-family="Times,serif" font-size="14.00" fill="#000000">b</text>
</g>
<!-- root&#45;&gt;b -->
<g id="root2b" class="edge">
<title>root:s&#45;&gt;b:s</title>
<path fill="none" stroke="#000000" d="M27,-30.1667C27,6.2395 101.5546,9.5104 114.9511,-20.3541"/>
<polygon fill="#000000" stroke="#000000" points="111.5299,-21.0932 117,-30.1667 118.3821,-19.6624 111.5299,-21.0932"/>
</g>
<!-- a&#45;&gt;root -->
<g id="a2root" class="edge">
<title>a:n&#45;&gt;root:n</title>
<path fill="none" stroke="#000000" d="M117,-120.1667C117,-163.4433 39.5378,-120.0934 28.3421,-76.3542"/>
<polygon fill="#000000" stroke="#000000" points="31.7762,-75.6239 27,-66.1667 24.8362,-76.5382 31.7762,-75.6239"/>
</g>
<!-- ab -->
<g id="ab" class="node">
<title>ab</title>
<ellipse fill="none" stroke="#000000" cx="207" cy="-102.1667" rx="27" ry="18"/>
<text text-anchor="middle" x="207" y="-98.4667" font-family="Times,serif" font-size="14.00" fill="#000000">ab</text>
</g>
<!-- a&#45;&gt;ab -->
<g id="edge2" class="edge">
<title>a&#45;&gt;ab</title>
<path fill="none" stroke="#000000" d="M144.003,-102.1667C152.0277,-102.1667 160.9665,-102.1667 169.5309,-102.1667"/>
<polygon fill="#000000" stroke="#000000" points="169.7051,-105.6668 179.705,-102.1667 169.705,-98.6668 169.7051,-105.6668"/>
<text text-anchor="middle" x="158.3379" y="-90.9667" font-family="Times,serif" font-size="14.00" fill="#000000">b</text>
</g>
<!-- ab&#45;&gt;a -->
<g id="ab2a" class="edge">
<title>ab:n&#45;&gt;a:ne</title>
<path fill="none" stroke="#000000" d="M207,-120.1667C207,-150.375 164.7613,-145.1887 139.2984,-124.1748"/>
<polygon fill="#000000" stroke="#000000" points="141.6373,-121.5683 132,-117.1667 136.7889,-126.6175 141.6373,-121.5683"/>
</g>
<!-- ab&#45;&gt;b -->
<g id="ab2b" class="edge">
<title>ab&#45;&gt;b</title>
<path fill="none" stroke="#000000" d="M186.6584,-89.9618C174.7062,-82.7904 159.3963,-73.6045 146.175,-65.6717"/>
<polygon fill="#000000" stroke="#000000" points="147.7981,-62.5639 137.4224,-60.4201 144.1966,-68.5664 147.7981,-62.5639"/>
</g>
<!-- bc -->
<g id="bc" class="node">
<title>bc</title>
<ellipse fill="none" stroke="#000000" cx="207" cy="-48.1667" rx="27" ry="18"/>
<text text-anchor="middle" x="207" y="-44.4667" font-family="Times,serif" font-size="14.00" fill="#000000">bc</text>
</g>
<!-- b&#45;&gt;bc -->
<g id="edge4" class="edge">
<title>b&#45;&gt;bc</title>
<path fill="none" stroke="#000000" d="M144.003,-48.1667C152.0277,-48.1667 160.9665,-48.1667 169.5309,-48.1667"/>
<polygon fill="#000000" stroke="#000000" points="169.7051,-51.6668 179.705,-48.1667 169.705,-44.6668 169.7051,-51.6668"/>
<text text-anchor="middle" x="158.3379" y="-36.9667" font-family="Times,serif" font-size="14.00" fill="#000000">c</text>
</g>
</g>
</svg>
