<?xml version="1.0" encoding="UTF-8" standalone="no"?>
<!DOCTYPE svg PUBLIC "-//W3C//DTD SVG 1.1//EN"
 "http://www.w3.org/Graphics/SVG/1.1/DTD/svg11.dtd">
<!-- Generated by graphviz version 2.40.1 (20161225.0304)
 -->
<!-- Title: %3 Pages: 1 -->
<svg width="543pt" height="206pt"
 viewBox="0.00 0.00 543.00 206.00" xmlns="http://www.w3.org/2000/svg" xmlns:xlink="http://www.w3.org/1999/xlink">
<g id="graph0" class="graph" transform="scale(1 1) rotate(0) translate(4 202)">
<title>%3</title>
<polygon fill="#ffffff" stroke="transparent" points="-4,4 -4,-202 539,-202 539,4 -4,4"/>
<!-- root -->
<g id="root" class="node">
<title>root</title>
<ellipse fill="none" stroke="#000000" cx="27" cy="-72" rx="27" ry="18"/>
<text text-anchor="middle" x="27" y="-68.3" font-family="Times,serif" font-size="14.00" fill="#000000">root</text>
</g>
<!-- t -->
<g id="t" class="node">
<title>t</title>
<ellipse fill="none" stroke="#000000" cx="124" cy="-126" rx="27" ry="18"/>
<text text-anchor="middle" x="124" y="-122.3" font-family="Times,serif" font-size="14.00" fill="#000000">t</text>
</g>
<!-- root&#45;&gt;t -->
<g id="edge3" class="edge">
<title>root&#45;&gt;t</title>
<path fill="none" stroke="#000000" d="M48.0476,-83.7172C61.5213,-91.218 79.2098,-101.0652 94.1264,-109.3694"/>
<polygon fill="#000000" stroke="#000000" points="92.5537,-112.4996 102.9935,-114.3057 95.9586,-106.3835 92.5537,-112.4996"/>
<text text-anchor="middle" x="75.5" y="-103.8" font-family="Times,serif" font-size="14.00" fill="#000000">t</text>
</g>
<!-- s -->
<g id="s" class="node">
<title>s</title>
<ellipse fill="none" stroke="#000000" cx="124" cy="-72" rx="27" ry="18"/>
<text text-anchor="middle" x="124" y="-68.3" font-family="Times,serif" font-size="14.00" fill="#000000">s</text>
</g>
<!-- root&#45;&gt;s -->
<g id="edge2" class="edge">
<title>root&#45;&gt;s</title>
<path fill="none" stroke="#000000" d="M54.0199,-72C64.1304,-72 75.8016,-72 86.6794,-72"/>
<polygon fill="#000000" stroke="#000000" points="86.7886,-75.5001 96.7886,-72 86.7885,-68.5001 86.7886,-75.5001"/>
<text text-anchor="middle" x="75.5" y="-75.8" font-family="Times,serif" font-size="14.00" fill="#000000">s</text>
</g>
<!-- a -->
<g id="a" class="node">
<title>a</title>
<ellipse fill="none" stroke="#000000" cx="124" cy="-18" rx="27" ry="18"/>
<text text-anchor="middle" x="124" y="-14.3" font-family="Times,serif" font-size="14.00" fill="#000000">a</text>
</g>
<!-- root&#45;&gt;a -->
<g id="edge1" class="edge">
<title>root&#45;&gt;a</title>
<path fill="none" stroke="#000000" d="M48.0476,-60.2828C61.5213,-52.782 79.2098,-42.9348 94.1264,-34.6306"/>
<polygon fill="#000000" stroke="#000000" points="95.9586,-37.6165 102.9935,-29.6943 92.5537,-31.5004 95.9586,-37.6165"/>
<text text-anchor="middle" x="75.5" y="-50.8" font-family="Times,serif" font-size="14.00" fill="#000000">a</text>
</g>
<!-- ta -->
<g id="ta" class="node">
<title>ta</title>
<ellipse fill="none" stroke="#000000" cx="221" cy="-180" rx="27" ry="18"/>
<text text-anchor="middle" x="221" y="-176.3" font-family="Times,serif" font-size="14.00" fill="#000000">ta</text>
</g>
<!-- t&#45;&gt;ta -->
<g id="edge5" class="edge">
<title>t&#45;&gt;ta</title>
<path fill="none" stroke="#000000" d="M145.0476,-137.7172C158.5213,-145.218 176.2098,-155.0652 191.1264,-163.3694"/>
<polygon fill="#000000" stroke="#000000" points="189.5537,-166.4996 199.9935,-168.3057 192.9586,-160.3835 189.5537,-166.4996"/>
<text text-anchor="middle" x="172.5" y="-157.8" font-family="Times,serif" font-size="14.00" fill="#000000">a</text>
</g>
<!-- ts -->
<g id="ts" class="node">
<title>ts</title>
<ellipse fill="none" stroke="#000000" cx="221" cy="-126" rx="27" ry="18"/>
<text text-anchor="middle" x="221" y="-122.3" font-family="Times,serif" font-size="14.00" fill="#000000">ts</text>
</g>
<!-- t&#45;&gt;ts -->
<g id="edge4" class="edge">
<title>t&#45;&gt;ts</title>
<path fill="none" stroke="#000000" d="M151.0199,-126C161.1304,-126 172.8016,-126 183.6794,-126"/>
<polygon fill="#000000" stroke="#000000" points="183.7886,-129.5001 193.7886,-126 183.7885,-122.5001 183.7886,-129.5001"/>
<text text-anchor="middle" x="172.5" y="-129.8" font-family="Times,serif" font-size="14.00" fill="#000000">s</text>
</g>
<!-- tar -->
<g id="tar" class="node">
<title>tar</title>
<ellipse fill="none" stroke="#000000" cx="318" cy="-180" rx="27" ry="18"/>
<text text-anchor="middle" x="318" y="-176.3" font-family="Times,serif" font-size="14.00" fill="#000000">tar</text>
</g>
<!-- ta&#45;&gt;tar -->
<g id="edge6" class="edge">
<title>ta&#45;&gt;tar</title>
<path fill="none" stroke="#000000" d="M248.0199,-180C258.1304,-180 269.8016,-180 280.6794,-180"/>
<polygon fill="#000000" stroke="#000000" points="280.7886,-183.5001 290.7886,-180 280.7885,-176.5001 280.7886,-183.5001"/>
<text text-anchor="middle" x="269.5" y="-183.8" font-family="Times,serif" font-size="14.00" fill="#000000">r</text>
</g>
<!-- tars -->
<g id="tars" class="node">
<title>tars</title>
<ellipse fill="none" stroke="#000000" cx="414" cy="-180" rx="27" ry="18"/>
<text text-anchor="middle" x="414" y="-176.3" font-family="Times,serif" font-size="14.00" fill="#000000">tars</text>
</g>
<!-- tar&#45;&gt;tars -->
<g id="edge7" class="edge">
<title>tar&#45;&gt;tars</title>
<path fill="none" stroke="#000000" d="M345.253,-180C354.9815,-180 366.118,-180 376.5542,-180"/>
<polygon fill="#000000" stroke="#000000" points="376.6789,-183.5001 386.6789,-180 376.6789,-176.5001 376.6789,-183.5001"/>
<text text-anchor="middle" x="366" y="-183.8" font-family="Times,serif" font-size="14.00" fill="#000000">s</text>
</g>
<!-- tsa -->
<g id="tsa" class="node">
<title>tsa</title>
<ellipse fill="none" stroke="#000000" cx="318" cy="-126" rx="27" ry="18"/>
<text text-anchor="middle" x="318" y="-122.3" font-family="Times,serif" font-size="14.00" fill="#000000">tsa</text>
</g>
<!-- ts&#45;&gt;tsa -->
<g id="edge8" class="edge">
<title>ts&#45;&gt;tsa</title>
<path fill="none" stroke="#000000" d="M248.0199,-126C258.1304,-126 269.8016,-126 280.6794,-126"/>
<polygon fill="#000000" stroke="#000000" points="280.7886,-129.5001 290.7886,-126 280.7885,-122.5001 280.7886,-129.5001"/>
<text text-anchor="middle" x="269.5" y="-129.8" font-family="Times,serif" font-size="14.00" fill="#000000">a</text>
</g>
<!-- tsar -->
<g id="tsar" class="node">
<title>tsar</title>
<ellipse fill="none" stroke="#000000" cx="414" cy="-126" rx="27" ry="18"/>
<text text-anchor="middle" x="414" y="-122.3" font-family="Times,serif" font-size="14.00" fill="#000000">tsar</text>
</g>
<!-- tsa&#45;&gt;tsar -->
<g id="edge9" class="edge">
<title>tsa&#45;&gt;tsar</title>
<path fill="none" stroke="#000000" d="M345.253,-126C354.9815,-126 366.118,-126 376.5542,-126"/>
<polygon fill="#000000" stroke="#000000" points="376.6789,-129.5001 386.6789,-126 376.6789,-122.5001 376.6789,-129.5001"/>
<text text-anchor="middle" x="366" y="-129.8" font-family="Times,serif" font-size="14.00" fill="#000000">r</text>
</g>
<!-- st -->
<g id="st" class="node">
<title>st</title>
<ellipse fill="none" stroke="#000000" cx="221" cy="-72" rx="27" ry="18"/>
<text text-anchor="middle" x="221" y="-68.3" font-family="Times,serif" font-size="14.00" fill="#000000">st</text>
</g>
<!-- s&#45;&gt;st -->
<g id="edge10" class="edge">
<title>s&#45;&gt;st</title>
<path fill="none" stroke="#000000" d="M151.0199,-72C161.1304,-72 172.8016,-72 183.6794,-72"/>
<polygon fill="#000000" stroke="#000000" points="183.7886,-75.5001 193.7886,-72 183.7885,-68.5001 183.7886,-75.5001"/>
<text text-anchor="middle" x="172.5" y="-75.8" font-family="Times,serif" font-size="14.00" fill="#000000">t</text>
</g>
<!-- sta -->
<g id="sta" class="node">
<title>sta</title>
<ellipse fill="none" stroke="#000000" cx="318" cy="-72" rx="27" ry="18"/>
<text text-anchor="middle" x="318" y="-68.3" font-family="Times,serif" font-size="14.00" fill="#000000">sta</text>
</g>
<!-- st&#45;&gt;sta -->
<g id="edge11" class="edge">
<title>st&#45;&gt;sta</title>
<path fill="none" stroke="#000000" d="M248.0199,-72C258.1304,-72 269.8016,-72 280.6794,-72"/>
<polygon fill="#000000" stroke="#000000" points="280.7886,-75.5001 290.7886,-72 280.7885,-68.5001 280.7886,-75.5001"/>
<text text-anchor="middle" x="269.5" y="-75.8" font-family="Times,serif" font-size="14.00" fill="#000000">a</text>
</g>
<!-- star -->
<g id="star" class="node">
<title>star</title>
<ellipse fill="none" stroke="#000000" cx="414" cy="-72" rx="27" ry="18"/>
<text text-anchor="middle" x="414" y="-68.3" font-family="Times,serif" font-size="14.00" fill="#000000">star</text>
</g>
<!-- sta&#45;&gt;star -->
<g id="edge12" class="edge">
<title>sta&#45;&gt;star</title>
<path fill="none" stroke="#000000" d="M345.253,-72C354.9815,-72 366.118,-72 376.5542,-72"/>
<polygon fill="#000000" stroke="#000000" points="376.6789,-75.5001 386.6789,-72 376.6789,-68.5001 376.6789,-75.5001"/>
<text text-anchor="middle" x="366" y="-75.8" font-family="Times,serif" font-size="14.00" fill="#000000">r</text>
</g>
<!-- start -->
<g id="start" class="node">
<title>start</title>
<ellipse fill="none" stroke="#000000" cx="508" cy="-72" rx="27" ry="18"/>
<text text-anchor="middle" x="508" y="-68.3" font-family="Times,serif" font-size="14.00" fill="#000000">start</text>
</g>
<!-- star&#45;&gt;start -->
<g id="edge13" class="edge">
<title>star&#45;&gt;start</title>
<path fill="none" stroke="#000000" d="M441.1887,-72C450.4446,-72 460.9552,-72 470.8551,-72"/>
<polygon fill="#000000" stroke="#000000" points="470.8724,-75.5001 480.8724,-72 470.8724,-68.5001 470.8724,-75.5001"/>
<text text-anchor="middle" x="461" y="-75.8" font-family="Times,serif" font-size="14.00" fill="#000000">t</text>
</g>
<!-- ar -->
<g id="ar" class="node">
<title>ar</title>
<ellipse fill="none" stroke="#000000" cx="221" cy="-18" rx="27" ry="18"/>
<text text-anchor="middle" x="221" y="-14.3" font-family="Times,serif" font-size="14.00" fill="#000000">ar</text>
</g>
<!-- a&#45;&gt;ar -->
<g id="edge14" class="edge">
<title>a&#45;&gt;ar</title>
<path fill="none" stroke="#000000" d="M151.0199,-18C161.1304,-18 172.8016,-18 183.6794,-18"/>
<polygon fill="#000000" stroke="#000000" points="183.7886,-21.5001 193.7886,-18 183.7885,-14.5001 183.7886,-21.5001"/>
<text text-anchor="middle" x="172.5" y="-21.8" font-family="Times,serif" font-size="14.00" fill="#000000">r</text>
</g>
<!-- art -->
<g id="art" class="node">
<title>art</title>
<ellipse fill="none" stroke="#000000" cx="318" cy="-18" rx="27" ry="18"/>
<text text-anchor="middle" x="318" y="-14.3" font-family="Times,serif" font-size="14.00" fill="#000000">art</text>
</g>
<!-- ar&#45;&gt;art -->
<g id="edge15" class="edge">
<title>ar&#45;&gt;art</title>
<path fill="none" stroke="#000000" d="M248.0199,-18C258.1304,-18 269.8016,-18 280.6794,-18"/>
<polygon fill="#000000" stroke="#000000" points="280.7886,-21.5001 290.7886,-18 280.7885,-14.5001 280.7886,-21.5001"/>
<text text-anchor="middle" x="269.5" y="-21.8" font-family="Times,serif" font-size="14.00" fill="#000000">t</text>
</g>
<!-- arts -->
<g id="arts" class="node">
<title>arts</title>
<ellipse fill="none" stroke="#000000" cx="414" cy="-18" rx="27" ry="18"/>
<text text-anchor="middle" x="414" y="-14.3" font-family="Times,serif" font-size="14.00" fill="#000000">arts</text>
</g>
<!-- art&#45;&gt;arts -->
<g id="edge16" class="edge">
<title>art&#45;&gt;arts</title>
<path fill="none" stroke="#000000" d="M345.253,-18C354.9815,-18 366.118,-18 376.5542,-18"/>
<polygon fill="#000000" stroke="#000000" points="376.6789,-21.5001 386.6789,-18 376.6789,-14.5001 376.6789,-21.5001"/>
<text text-anchor="middle" x="366" y="-21.8" font-family="Times,serif" font-size="14.00" fill="#000000">s</text>
</g>
</g>
</svg>
